<svg width="93" height="28" viewBox="0 0 93 28" fill="none" xmlns="http://www.w3.org/2000/svg">
<path d="M4 4.3L1.3 3.975V2.425H9.1L12.075 13.175L12.775 16.1L13.375 13.175L16.325 2.425H24.05V3.975L21.325 4.3L23.325 19.225L25.35 19.5V21H17.375V19.5L19.575 19.25L18.475 8.3L18 3.725L17.075 7.575L13.45 20.225H10.8L7.1 8.225L5.825 3.725L5.45 8.3L4.5 19.25L7.025 19.5V21H0.075V19.5L2.175 19.25L4 4.3ZM33.59 21.275C31.39 21.275 29.7484 20.6333 28.665 19.35C27.5984 18.05 27.065 16.2833 27.065 14.05C27.065 12.55 27.34 11.25 27.89 10.15C28.4567 9.05 29.2484 8.20833 30.265 7.625C31.2817 7.04167 32.4567 6.75 33.79 6.75C35.4567 6.75 36.74 7.19167 37.64 8.075C38.54 8.94167 39.0067 10.1833 39.04 11.8C39.04 12.9 38.9734 13.7167 38.84 14.25H30.715C30.7817 15.7667 31.14 16.95 31.79 17.8C32.44 18.6333 33.365 19.05 34.565 19.05C35.215 19.05 35.8817 18.9417 36.565 18.725C37.265 18.5083 37.815 18.25 38.215 17.95L38.84 19.325C38.39 19.8083 37.6567 20.2583 36.64 20.675C35.64 21.075 34.6234 21.275 33.59 21.275ZM35.54 12.75C35.5734 12.2833 35.59 11.925 35.59 11.675C35.59 9.45833 34.8484 8.35 33.365 8.35C32.5484 8.35 31.915 8.675 31.465 9.325C31.015 9.975 30.765 11.1167 30.715 12.75H35.54ZM45.9852 21.225C44.9352 21.225 44.1602 20.9833 43.6602 20.5C43.1602 20.0167 42.9102 19.25 42.9102 18.2V9.025H41.2852V7.725C41.4185 7.675 41.6602 7.59167 42.0102 7.475C42.3602 7.34167 42.6268 7.23333 42.8102 7.15C43.0935 6.93333 43.3352 6.55833 43.5352 6.025C43.6852 5.675 43.9602 4.80833 44.3602 3.425H46.3602L46.4602 7.1H50.2852V9.025H46.4852V16.05C46.4852 16.9833 46.5102 17.6417 46.5602 18.025C46.6102 18.4083 46.7185 18.6583 46.8852 18.775C47.0518 18.875 47.3435 18.925 47.7602 18.925C48.1768 18.925 48.6102 18.8833 49.0602 18.8C49.5102 18.7 49.8852 18.5833 50.1852 18.45L50.6602 19.85C50.1935 20.2 49.5102 20.5167 48.6102 20.8C47.7102 21.0833 46.8352 21.225 45.9852 21.225ZM52.4652 17.1C52.4652 15.5833 53.2236 14.4417 54.7402 13.675C56.2736 12.9083 58.2486 12.5167 60.6652 12.5V11.925C60.6652 11.2417 60.5902 10.7083 60.4402 10.325C60.3069 9.94167 60.0486 9.65833 59.6652 9.475C59.2986 9.275 58.7569 9.175 58.0402 9.175C57.2236 9.175 56.4902 9.28333 55.8402 9.5C55.1902 9.7 54.5152 9.96667 53.8152 10.3L53.0402 8.7C53.2902 8.48333 53.7069 8.225 54.2902 7.925C54.8902 7.625 55.5986 7.36667 56.4152 7.15C57.2319 6.91667 58.0736 6.8 58.9402 6.8C60.2236 6.8 61.2236 6.96667 61.9402 7.3C62.6736 7.63333 63.1986 8.16667 63.5152 8.9C63.8319 9.63333 63.9902 10.6167 63.9902 11.85V19.5H65.3402V20.9C65.0069 20.9833 64.5319 21.0667 63.9152 21.15C63.2986 21.2333 62.7569 21.275 62.2902 21.275C61.7236 21.275 61.3402 21.1917 61.1402 21.025C60.9569 20.8583 60.8652 20.5167 60.8652 20V19.325C60.4152 19.825 59.8319 20.275 59.1152 20.675C58.3986 21.075 57.5902 21.275 56.6902 21.275C55.9236 21.275 55.2152 21.1167 54.5652 20.8C53.9319 20.4667 53.4236 19.9917 53.0402 19.375C52.6569 18.7417 52.4652 17.9833 52.4652 17.1ZM58.2902 19.2C58.6402 19.2 59.0402 19.1 59.4902 18.9C59.9402 18.6833 60.3319 18.425 60.6652 18.125V14.025C59.1652 14.025 58.0402 14.2833 57.2902 14.8C56.5569 15.3 56.1902 15.95 56.1902 16.75C56.1902 17.55 56.3736 18.1583 56.7402 18.575C57.1236 18.9917 57.6402 19.2 58.2902 19.2ZM69.3754 9.05H67.2754V7.65L69.3754 7.15V6.05C69.3754 4.96667 69.6587 3.975 70.2254 3.075C70.8087 2.175 71.5837 1.46667 72.5504 0.949999C73.5171 0.416665 74.5421 0.149999 75.6254 0.149999C76.1921 0.149999 76.7254 0.233332 77.2254 0.399998V3.6C77.0587 3.43333 76.7254 3.26667 76.2254 3.1C75.7421 2.93333 75.2337 2.85 74.7004 2.85C74.0504 2.85 73.5837 3.01667 73.3004 3.35C73.0337 3.66667 72.9004 4.21667 72.9004 5V7.125H76.0754V9.05H72.9004V19.3L75.5254 19.5V21H67.4004V19.5L69.3754 19.275V9.05ZM80.8305 27.225C80.5305 27.225 80.2055 27.2 79.8555 27.15C79.5221 27.1 79.2805 27.0417 79.1305 26.975V24.3C79.2471 24.3667 79.4805 24.4333 79.8305 24.5C80.1805 24.5667 80.4971 24.6 80.7805 24.6C81.6138 24.6 82.2971 24.325 82.8305 23.775C83.3805 23.225 83.8888 22.3 84.3555 21H83.0055L78.3055 8.875L77.1805 8.55V7.1H84.0555V8.55L82.2305 8.85L84.4555 15.775L85.3555 18.725L86.1305 15.775L88.1805 8.85L86.6055 8.55V7.1H92.0305V8.55L90.8055 8.85C89.8888 11.65 88.9805 14.35 88.0805 16.95C87.1805 19.55 86.6555 21.0083 86.5055 21.325C85.9721 22.725 85.4638 23.8417 84.9805 24.675C84.4971 25.5083 83.9221 26.1417 83.2555 26.575C82.5888 27.0083 81.7805 27.225 80.8305 27.225Z" fill="#333333"/>
</svg>
