<svg width="45" height="45" viewBox="0 0 45 45" fill="none" xmlns="http://www.w3.org/2000/svg">
<path d="M10.623 44.619C8.83963 44.619 7.12763 43.7987 5.48696 42.158C3.8463 40.5173 2.52663 38.3417 1.52796 35.631C0.600629 32.849 0.136963 29.96 0.136963 26.964C0.136963 22.6127 0.885963 18.5823 2.38396 14.873C3.88196 11.0923 5.70096 7.918 7.84096 5.35C9.98096 2.782 11.9426 0.998667 13.726 0H13.833L16.722 2.889V4.06601C15.01 5.42134 13.3336 7.63267 11.693 10.7C10.1236 13.7673 9.33896 17.5123 9.33896 21.935C9.33896 24.3603 9.69563 26.322 10.409 27.82C11.1223 29.2467 12.1566 30.8517 13.512 32.635C14.5106 33.8477 15.224 34.882 15.652 35.738C16.1513 36.5227 16.401 37.5213 16.401 38.734C16.401 40.5887 15.866 42.051 14.796 43.121C13.726 44.1197 12.335 44.619 10.623 44.619ZM38.764 44.619C36.9093 44.619 35.1616 43.7987 33.521 42.158C31.8803 40.5173 30.5606 38.3417 29.562 35.631C28.6346 32.849 28.171 29.96 28.171 26.964C28.171 22.6127 28.92 18.5823 30.418 14.873C31.916 11.0923 33.735 7.918 35.875 5.35C38.015 2.782 39.9766 0.998667 41.76 0H41.867L44.863 2.889V4.06601C43.151 5.42134 41.4746 7.63267 39.834 10.7C38.1933 13.7673 37.373 17.5123 37.373 21.935C37.373 24.3603 37.7296 26.322 38.443 27.82C39.1563 29.318 40.2263 30.923 41.653 32.635C42.6516 33.8477 43.365 34.882 43.793 35.738C44.2923 36.5227 44.542 37.5213 44.542 38.734C44.542 40.5887 44.007 42.051 42.937 43.121C41.867 44.1197 40.476 44.619 38.764 44.619Z" fill="#A06056"/>
</svg>
